<svg width="47" height="47" viewBox="0 0 47 47" fill="none" xmlns="http://www.w3.org/2000/svg">
<path d="M35.25 11.75H31.3333C31.3333 7.42208 27.8279 3.91667 23.5 3.91667C19.1721 3.91667 15.6666 7.42208 15.6666 11.75H11.75C9.59581 11.75 7.83331 13.5125 7.83331 15.6667V39.1667C7.83331 41.3208 9.59581 43.0833 11.75 43.0833H35.25C37.4041 43.0833 39.1666 41.3208 39.1666 39.1667V15.6667C39.1666 13.5125 37.4041 11.75 35.25 11.75ZM23.5 7.83333C25.6541 7.83333 27.4166 9.59583 27.4166 11.75H19.5833C19.5833 9.59583 21.3458 7.83333 23.5 7.83333ZM35.25 39.1667H11.75V15.6667H15.6666V19.5833C15.6666 20.6604 16.5479 21.5417 17.625 21.5417C18.7021 21.5417 19.5833 20.6604 19.5833 19.5833V15.6667H27.4166V19.5833C27.4166 20.6604 28.2979 21.5417 29.375 21.5417C30.4521 21.5417 31.3333 20.6604 31.3333 19.5833V15.6667H35.25V39.1667Z" fill="white"/>
</svg>
