<svg width="37" height="37" viewBox="0 0 37 37" fill="none" xmlns="http://www.w3.org/2000/svg">
<g clip-path="url(#clip0_6_33)">
<path d="M25.2708 16.9583H24.0529L23.6213 16.5421C25.1321 14.7846 26.0417 12.5029 26.0417 10.0208C26.0417 4.48625 21.5554 0 16.0208 0C10.4862 0 6 4.48625 6 10.0208C6 15.5554 10.4862 20.0417 16.0208 20.0417C18.5029 20.0417 20.7846 19.1321 22.5421 17.6213L22.9583 18.0529V19.2708L30.6667 26.9637L32.9637 24.6667L25.2708 16.9583ZM16.0208 16.9583C12.1821 16.9583 9.08333 13.8596 9.08333 10.0208C9.08333 6.18208 12.1821 3.08333 16.0208 3.08333C19.8596 3.08333 22.9583 6.18208 22.9583 10.0208C22.9583 13.8596 19.8596 16.9583 16.0208 16.9583Z" fill="white"/>
</g>
<defs>
<clipPath id="clip0_6_33">
<rect width="37" height="37" fill="white"/>
</clipPath>
</defs>
</svg>
