<svg width="32" height="32" viewBox="0 0 32 32" fill="none" xmlns="http://www.w3.org/2000/svg">
<path fill-rule="evenodd" clip-rule="evenodd" d="M29.3333 16C29.3333 23.3638 23.3638 29.3333 16 29.3333C8.6362 29.3333 2.66666 23.3638 2.66666 16C2.66666 8.6362 8.6362 2.66666 16 2.66666C23.3638 2.66666 29.3333 8.6362 29.3333 16ZM16.4778 12.5099C15.1809 13.0493 12.589 14.1658 8.70208 15.8593C8.0709 16.1103 7.74026 16.3558 7.71016 16.5959C7.65929 17.0017 8.16743 17.1615 8.85939 17.379C8.95351 17.4086 9.05103 17.4393 9.15101 17.4718C9.83179 17.6931 10.7476 17.952 11.2236 17.9623C11.6555 17.9716 12.1374 17.7936 12.6696 17.4282C16.3013 14.9767 18.176 13.7376 18.2937 13.7109C18.3767 13.692 18.4917 13.6683 18.5697 13.7376C18.6477 13.8069 18.64 13.9381 18.6318 13.9734C18.5814 14.1879 16.5868 16.0423 15.5546 17.002C15.2328 17.3012 15.0045 17.5134 14.9578 17.5618C14.8533 17.6704 14.7468 17.7731 14.6444 17.8718C14.0119 18.4815 13.5377 18.9387 14.6707 19.6853C15.2151 20.0441 15.6508 20.3408 16.0855 20.6368C16.5602 20.9601 17.0336 21.2825 17.6462 21.6841C17.8023 21.7864 17.9513 21.8927 18.0965 21.9962C18.6489 22.39 19.1452 22.7438 19.7584 22.6874C20.1147 22.6546 20.4827 22.3196 20.6696 21.3204C21.1113 18.9591 21.9796 13.8427 22.1802 11.7344C22.1978 11.5497 22.1757 11.3133 22.1579 11.2095C22.1402 11.1058 22.103 10.9579 21.9682 10.8485C21.8084 10.7188 21.5618 10.6915 21.4515 10.6934C20.95 10.7023 20.1806 10.9698 16.4778 12.5099Z" fill="#EE3E8E"/>
</svg>
